# xmcd
#
# Track frame offsets: 
#        150
#        34565
#        54035
#        71405
#        102897
#        126162
#        152827
#        173622
#        209482
#        231182
#        259272
#
# Disc length: 3679 seconds
#
# Revision: 3
# Processed by: cddbd v1.5.2PL0 Copyright (c) Steve Scherf et al.
# Submitted via: ExactAudioCopyFreeDBPlugin 1.0
#
DISCID=8c0e5d0b
DTITLE=Jimmy Dawkins Band - Blisterstring
DYEAR=1996
DGENRE=Blues
TTITLE0=Feel So Bad
TTITLE1=Blue Monday
TTITLE2=Chitlins Con Carne
TTITLE3=She Got The Blues Too
TTITLE4=If You're Ready
TTITLE5=Blues With A Feeling
TTITLE6=Ode To Billle Joe
TTITLE7=Welfare Line
TTITLE8=Shufflin The Blues
TTITLE9=People Will Talk
TTITLE10=Sea Of Luv
EXTD=YEAR: 1996
EXTT0=
EXTT1=
EXTT2=
EXTT3=
EXTT4=
EXTT5=
EXTT6=
EXTT7=
EXTT8=
EXTT9=
EXTT10=
PLAYORDER=
